<?xml version="1.0" encoding="UTF-8"?>
<svg version="1.1" viewBox="0 0 2000 2000" width="900px" height="900px" xmlns="http://www.w3.org/2000/svg">
<path transform="translate(992,789)" d="m0 0h48l38 3 32 1 65 8 54 8 51 10 42 10 55 15 39 12 47 16 30 12 28 11 28 12 26 12 40 19 50 27 28 17 23 14 42 28 19 13 18 13 11 10 5 9 2 10-1 12-5 10-8 7-16 10-37 25-12 9-15 10-11 8-6 12-12 36-9 25-11 28-6 12-10 11-10 6-11 3-9-2-10-5-17-12-14-10-33-22-16-9-27-15-23-13-16-8-34-16-34-15-47-18-38-13-52-15-32-8-55-11-46-7-38-4-34-2-47-1h-25l-50 1-24 2-36 4-48 7-41 8-32 7-39 11-30 9-44 16-32 12-38 17-30 14-22 11-10 6-16 8-16 9-13 8-14 8-16 11-42 28-10 6-10 3-11-2-10-6-5-4-7-10-11-27-10-27-7-19-9-27-6-10-16-12-19-14-15-10-16-11-17-11-10-7-5-5-4-7v-24l5-10 9-10 34-23 17-12 33-21 15-10 23-13 11-7 14-7 14-8 27-14 25-12 16-8 27-12 41-17 23-9 19-7 29-10 41-13 44-12 41-11 28-7 50-9 43-7 43-5 29-3 45-2 9-1zm496 169-4 5-4 13 1 5 7-3 5-6 1-2v-7l-5-5zm175 104m1 1 2 10 1 17 2 6 5-1 5-5v-10l-6-9-8-8zm-34 38v6l8 17-1 7-7 11-6 5-8 1-10-3-9-5-10-9-3-3h-2l1 7 7 6 16 10 7 2h12l10-3 6-5 3-6v-7l-3-18-4-8-5-5z" fill="#525051"/>
<path transform="translate(957,405)" d="m0 0 6 2 4 8-1 25 1 31v35l2 8 2 1h6l2-1 1-103 3-5 2-1h7l4 3 1 108 3 2h7l3-3 1-14v-84l2-8 5-3h6l3 2 3 8-1 7-1 1v91l5 2 4-1 5-6v-98l2-5 4-2h7l4 4v128l-1 17-7 11-9 8-2 1-13 1-6 3-1 8v148l1 3 40 1 20 1 8 2 30 1 13 3 13 1 3-3 1-2v-31l1-8 1-33v-15l-5-9-14-8-7-8-5-10-3-9-3-19v-19l2-10 2-14 6-18 9-17 9-11 8-7 6-3h16l10 4 9 9 8 13 8 18 4 12 4 21v30l-5 18-6 12-7 8-13 8-3 3-1 41v55l1 8 7 4 34 7 39 10 20 7 17 8v2l-14-2-27-6-44-8-23-4-32-4-31-2-51-5-23-1-45-1-63 1-28 2-64 6-49 7-23 3-34 6-19 6-14 3-5-1-3-1 1-4 19-5 21-6 24-8 33-8 14-2 8-5 1-1v-102l-9-7-8-6-7-9-6-11-4-16v-33l3-14 4-15 5-12 9-17 4-5h2l2-4 10-6 4-1h13l8 3 10 9 7 9 9 17 4 12 2 9 2 7 2 18 1 6v9l-2 6-1 13-6 14-9 10-8 6-6 4h-2l-1 87-1 2v7l2 7 24-3 14-2 18-1 13-2 58-2v-158l-4-3-15-2-11-8-5-8-3-10v-136l4-5z" fill="#565354"/>
<path transform="translate(884,863)" d="m0 0h9l1 1v12l-9 3v10l10 66 1 8 10-1 2 1 1 5v7l-6 2-33 5h-7l-1-4v-9l7-2h3l-7-63-1-6-14 68-4 18-3 2-13 1-12-22-12-23-10-18-7-14-2-1 3 13 9 51 1 3h10l3 8v5l-5 2-33 5h-8l-2-8 1-5 9-3-1-15-10-67v-2h-11l-2-5-1-7 4-2 33-5h5l12 22 14 28 12 22 3 6h1l15-78 3-9 17-3z" fill="#FEFFFE"/>
<path transform="translate(521,1445)" d="m0 0 8 4 11 7 21 12 28 13 25 12 27 11 27 12 28 10 24 8 25 8 42 11 18 5 29 6 25 3 26 5 53 7 25 2h116l39-3 31-4 63-10 36-7 31-8 28-8 22-8 18-5 15-4 26-12 20-8 25-11 17-9 16-8 34-16 22-12 4-2h4l-2 6-14 9-22 13-27 15-10 5-20 9-24 11-17 8-20 6-20 9-28 8-24 9-17 3-26 7-16 5-47 8-36 7-61 6-96 1h-46l-30-3-34-4-26-5-39-6-27-6-24-6-22-6-19-7-24-6-40-15-26-10-33-15-21-10-17-10-16-9-12-8-15-6-8-5-3-3-1-4z" fill="#A39B91"/>
<path transform="translate(1430,1281)" d="m0 0h3l-1 5-13 8-17 9-12 6-13 8-18 8-16 8-27 11-21 8-31 12-44 12-24 7-33 7-35 5-46 4-51 3h-14l-60-4-48-5-32-5-33-7-33-9-31-10-27-9-35-15-30-13-16-7-13-8-14-7-17-11-6-5-3-5 11 3 16 8 14 8 20 9 12 6 20 9 26 11 25 9 32 10 21 6 49 12 31 5 24 3 29 4 33 3 35 2h16l29-3 22-1 50-6 45-7 66-15 24-7 41-14 18-8 22-9 26-12 15-6 20-12z" fill="#B0AAA1"/>
<path transform="translate(396,1016)" d="m0 0 4 1 6 9-8 8-2 13-3 30v5l31 14 16 7 6 1 5-3 4 1 6 8-2 4-18 11-16 10-4-2-4-7v-3h2l1-5-9-3-22-10-6-1-8 5 2 6 11 18 2 3 5-1 7-1 6 9-1 3-20 12-15 10-5-1-5-10 7-6h2l-9-16-15-24-17-28-3-4-5 1-2 1h-6l-5-8 1-4 35-21 4-1 5 9-1 5-5 3 1 5 12 20 1 3 8-4 1-1 3-39-7 1-6-9 5-5 13-8z" fill="#FEFFFE"/>
<path transform="translate(579,933)" d="m0 0 4 1 13 15 27 33 22 26 5 6 3 1 4-1 5 9-2 4-24 9-10 3-4-9 1-5 4-2-2-4-6-8-8 1-27 10-1 1v16l7-1 3 5 2 5v3l-20 8-12 4-5-1-2-6v-5l5-3v-20l-1-46v-41l11-5z" fill="#FEFFFE"/>
<path transform="translate(1070,862)" d="m0 0h11l10 1 3 3 18 65 9 32 2 3 5 2 1 1v9l-2 3-36-2-1-1v-10l1-3 7-1-4-15-2-1-36-3-3 10-1 7h5l1 1v9l-1 4h-13l-24-2-1-1v-9l3-4h6l1-5 10-23 20-47 9-21z" fill="#FEFFFE"/>
<path transform="translate(1798,1054)" d="m0 0 4 2 6 7 4 8 1 13-2 10-6 9-8 6-44 29-12 9-19 13-14 10-6 12-12 36-9 25-11 28-6 12-10 11-10 6-11 3-9-2-10-5-17-12-14-10-33-22-16-9-27-15-23-13-16-8-34-16-34-15-47-18-38-13-52-15-32-8-55-11-46-7-38-4-34-2-47-1h-25l-50 1-24 2-36 4-48 7-41 8-32 7-39 11-30 9-44 16-32 12-38 17-30 14-22 11-10 6-16 8-16 9-13 8-14 8-16 11-42 28-10 6-10 3-11-2-10-6-2-3 5 2 7 4h12l16-8 20-14 16-11 27-18 49-28 24-13 25-12 33-15 26-11 54-20 31-10 54-15 30-7 50-10 43-6 37-4 31-2 22-1h76l52 3 45 5 40 6 46 9 34 8 56 16 30 10 51 19 30 13 35 16 25 12 23 13 27 15 23 14 38 26 17 12 12 7 3 1h13l12-7 7-7 8-16 15-40 10-28 7-21 4-9 8-7 14-10 18-13 13-9 33-22 11-8 7-8 2-5v-20l-6-10z" fill="#FEFFFE"/>
<path transform="translate(1619,1038)" d="m0 0h16l10 3 11 6 10 8 8 9 6 11 1 9-1 5h-1l-1-9-6-9-7-7 2 9 1 17 1 6 5-2 4-3-2 4-5 5-5-1-10-7 1-7 2-4v-6l-5-7-11-8-9-3-8 1-5 4-1 2v9l5 9 12 15 9 14 4 12-1 12-5 10-5 6-8 4-4 1h-17l-13-5-10-6-10-9-8-11-4-9v-8l10-16h5l10 7 1 3-4 8-1 6 4 7 7 7 12 6 6 1 7-3 4-5 1-2-1-9-7-11-10-12-7-11-5-11-1-9 3-10 6-8 8-6zm44 24m-33 39v6l8 17-1 7-7 11-6 5-8 1-10-3-9-5-10-9-3-3h-2l1 7 7 6 16 10 7 2h12l10-3 6-5 3-6v-7l-3-18-4-8-5-5z" fill="#FEFFFE"/>
<path transform="translate(1265,889)" d="m0 0 9 1 31 8 6 2-1 6-2 6-6 1h-6l-7 26-12 47-1 6 17 4 15 4 2-11 1-2 8 1 9 3-2 10-5 20-7-1-70-18-7-3 1-6 3-6 11 1 4-16 15-59v-8l-7-2-1-6z" fill="#FEFFFE"/>
<path transform="translate(521,1445)" d="m0 0 8 4 11 7 21 12 28 13 16 8-3 1-17-8-14-7-7-2 26 14 16 8 21 10 31 13 15 6 20 7 30 10 21 6 19 6 33 8 37 8 47 8 38 5 31 3 14 1h117l41-3 40-5 41-7 36-7 48-12 33-10 36-12 20-8 21-8 30-13 41-20 32-18 11-6-1-2 17-9h4l-2 6-14 9-22 13-27 15-10 5-20 9-24 11-17 8-20 6-20 9-28 8-24 9-17 3-26 7-16 5-47 8-36 7-61 6-96 1h-46l-30-3-34-4-26-5-39-6-27-6-24-6-22-6-19-7-24-6-40-15-26-10-33-15-21-10-17-10-16-9-12-8-15-6-8-5-3-3-1-4z" fill="#FCFDFC"/>
<path transform="translate(1430,1281)" d="m0 0h3l-1 5-13 8-17 9-12 6-13 8-18 8-16 8-27 11-21 8-31 12-44 12-24 7-33 7-35 5-46 4-51 3h-14l-60-4-48-5-32-5-33-7-33-9-31-10-27-9-35-15-30-13-16-7-13-8-14-7-17-11-6-5-3-5 11 3 16 8 14 8 20 9 5 4-5-1-33-16-16-9-5-2 1 1 11 8 28 15 16 8 38 17 26 10 34 12 27 8 26 7 29 7 33 6 31 4 43 4 34 2h42l47-3 44-5 47-8 29-7 49-14 32-11 33-13 20-9 28-13 12-7 22-13 19-10z" fill="#FEFFFE"/>
<path transform="translate(1201,1449)" d="m0 0 10 1 1 3-3 12-1 2v7l3 7v15l2 8 6 10v7l-4 2h-10l-4-2-1-2v-19l-10 1-1 1-1 20-4 5-2 1h-10l-6-4-1-1-1-16-2-4h-7l-1 7 4 12-1 7-3 2h-15l-2-2-1-6 3-6v-10l-2-8-1-13-4-12-5-11v-4l6-2h7l10 5 5 7 6 14 6 8 6 5h5l3-4 6-24 1-9 7-8z" fill="#686563"/>
<path transform="translate(800,1424)" d="m0 0 13 1 8 2 8 6 1 5-11 4-4 5 1 7 3 3 9 3 8-1 3-3v-8l-6-10-1-2 7-2h12l16 7 2 2-1 4-7 6-4 3-6 24-3 10v7l2 6v6l-1 2-9 1-12-4-10-6 6-7 7-9v-6l-2-4-6-2-2-1h-7l-6 4-1 1v7l4 11 1 3-12 1-8-2-10-5-1-5 8-14 6-17 4-10v-11l-1-9z" fill="#5D5B5A"/>
<path transform="translate(985,1458)" d="m0 0 8 1 7 5 10 15 7 13 5 6 7 2 1-4v-19l-5-14 3-2h15l6 1-1 9-4 10-2 26-3 26-2 3h-6l-6-4-4-6-5-15-7-10-3-2-7 1-3 6 1 9 5 14v6h-11l-10-4-2-2 1-7 3-6 1-19 2-11v-8l-7-14 1-4z" fill="#646161"/>
<path transform="translate(520,1272)" d="m0 0 8 1 6 4v2l3 1 3 6v10l4-1h8l11 4 4 5 2 3-1 5-5 1-19 1-8 3-4 5-4 10v15l3 10-1 8-5 1-9-7-4-5v-6l3-8v-10l-1-7h-7l-5 5-7 11-2 1-11-7-3-3 1-6 14-10 7-7 7-8 6-9 1-2 1-10z" fill="#767371"/>
<path transform="translate(1145,1175)" d="m0 0 6 2 8 20 1 1 19 2 2 1-1 7-9 8-2 4v7l4 11-1 7-4 2-6-1-8-8-4-2-5 1-14 9-8 1-3-3v-7l4-10v-8l-4-4-9-7-1-3 3-6 19-1 3-3 6-17z" fill="#9D9489"/>
<path transform="translate(897,1446)" d="m0 0 11 1 35 7 6 4 3 3-1 6-6 7-4 1-10-8-5-2-8 1-3 3v7l4 3 10 1h11l-3 15-2 4-6-1-10-5-5 1-6 7v7l4 6 2 1h9l6-4 6-3 6 5v12l-4 4-8-1-19-4-16-3-9-3 1-4 5-8 3-8 1-11 2-4 1-6v-12l-4-10 1-7z" fill="#696665"/>
<path transform="translate(803,1175)" d="m0 0h7l2 2 5 16 3 5 19 2 2 2v5l-5 5-6 5-1 2v11l3 8v6l-5 3-5-2-13-10h-5l-9 7-5 4h-7l-2-3v-7l3-9v-8l-5-5-9-7-1-4 3-4 21-1 3-5 2-10 3-7z" fill="#9E958A"/>
<path transform="translate(982,1174)" d="m0 0 5 2 4 8 3 11 2 3 4 2h16l3 2-1 5-10 9-3 5v7l3 7 1 10-4 1-11-7-10-4-12 6-5 3-6 1-3-3v-6l2-6v-10l-3-5-9-8v-6l3-2 19-1 2-4 3-5 2-9 3-5z" fill="#9D9489"/>
<path transform="translate(1272,1432)" d="m0 0 5 2 9 11 12 18 12 16 2 4 4 2 6 7-1 4-5 3-9 1-5-4-5-10-8-6-5-1-6 9-2 9-1 10-4 4-5 2h-6l-2-2v-11l2-5 2-23 2-12 2-21zm7 34 1 3 1-3z" fill="#635F5E"/>
<path transform="translate(987,753)" d="m0 0h33l54 2 61 5 50 6 48 7 36 7h5l-2-2 6 1 16 7 4 2v2l-14-2-27-6-44-8-23-4-32-4-31-2-51-5-23-1-45-1-63 1-28 2-64 6-49 7-23 3-34 6-19 6-14 3-5-1-3-1 1-4 19-5 21-6 6-1-3 2h7l43-7 56-7 58-5 43-2z" fill="#FDFEFD"/>
<path transform="translate(1366,1402)" d="m0 0h19l5 5 1 9-2 3-9-1-7-3-8 1-7 5-5 8-1 4v7l4 13 5 7 9 4 6 1h10l5-3 2-4-1-7-3-5-9-3-2-2 1-6 8-3h8l5 4 5 10 2 8-1 9-4 5-15 8-4 1h-14l-10-4-8-6-6-9-5-13-1-6v-11l3-10 9-10 10-5z" fill="#6D6968"/>
<path transform="translate(732,1400)" d="m0 0h9l10 3 11 7 6 9 1 2v7l-4 6-3 3-4 1-4-4-2-14-4-5-8-1-10 3-8 6-5 8-2 11 1 11 4 6 7 4h8l8-3 8 2 1 4-3 7-3 3-3 1h-14l-13-4-8-7-4-8-2-10v-11l3-13 6-11 7-7 10-5z" fill="#FEFFFE"/>
<path transform="translate(642,1354)" d="m0 0 7 1 17 9 7 5 18 8 4 5v7l-5 7-5-1-8-8-3-2h-6l-5 6-8 16-5 8-1 3v15l-1 4-3 1-14-7-6-6 1-4 7-6h2l2-4 10-19 4-8v-9l-4-3-14-1-1-1 1-9 6-6z" fill="#656261"/>
<path transform="translate(1498,1336)" d="m0 0h15l5 3 4 8-1 5-3 3-8-1-4-2h-7l-6 4-4 8v9l5 13 6 7 9 4h14l5-4 2-5 2-14 1-1 7 1 4 6v9l-6 8-13 9-10 4h-7l-13-5-10-8-7-11-5-14v-9l4-10 6-8 8-6z" fill="#656261"/>
<path transform="translate(549,1296)" d="m0 0h7l8 4 5 7-1 5-5 1-19 1-8 3-4 5-4 10v15l3 10-1 8-5 1-9-7-4-5 1-5 3-3v-18l-5-15-3-3 2-5 10 1 23-6 4-1v-2z" fill="#5A5757"/>
<path transform="translate(1048,405)" d="m0 0h7l4 4v128l-1 17-7 11-9 8-2 1-13 1-6 3-1 8v150l-4-4v-159l17-3 9-5 5-5 4-6 3-11v-136h-9z" fill="#FEFFFE"/>
<path transform="translate(1434,1372)" d="m0 0 4 1 3 5 1 16 7 15 5 12 5 4 9 5 1 6-10 7-6 2h-6l-2-4-1-13-11-23-8-12-8-7v-4l10-7z" fill="#615D5C"/>
<path transform="translate(595,1326)" d="m0 0 6 1 10 6 6 7-9 8-7 6-8 15-9 11-3 17-3 2-10-5-8-7 1-4 11-8 5-6 10-17 5-10 2-14z" fill="#5F5C5B"/>
<path transform="translate(865,503)" d="m0 0 5 4 8 13 7 15 4 16 2 7 2 18 1 6v9l-2 6-1 13-6 14-9 10-8 6-6 4h-2l-1 87-1 2v7l1 5-5-2v-98l4-4 10-6 5-4 7-10 5-12 3-14v-25l-3-20-6-20-8-17-6-8z" fill="#FEFFFE"/>
<path transform="translate(1185,500)" d="m0 0 6 5 8 13 8 18 4 12 4 21v30l-5 18-6 12-7 8-13 8-3 3-1 41v63l-4-1v-107l14-9 7-7 8-14 4-14 1-6v-24l-3-19-5-17-7-17-9-14z" fill="#FEFFFE"/>
<path transform="translate(908,1455)" d="m0 0 16 2 12 2 1 1v10l6-1 2-12h3l4 4-1 6-6 7-4 1-10-8-5-2-8 1-3 3v7l4 3 10 1h11l-3 15-2 4-6-1-10-5-5 1-6 7v7l4 7-11-3-1-1 1-10 2-13 1-2 16 1 10 2 2-6-12-1-14-3v-9z" fill="#FEFFFE"/>
<path transform="translate(704,1530)" d="m0 0 7 1 34 11 42 11 18 5 29 6 25 3 26 5 53 7 25 2h116l39-3 31-4 63-10 36-7 31-8 28-8 5-2 4 1-18 6-36 10-35 8-72 12-42 5-29 2-41 1h-61l-38-2-26-3-42-6-50-8-31-7-51-14-40-13z" fill="#FEFFFE"/>
<path transform="translate(1387,1432)" d="m0 0h8l5 4 5 10 2 8-1 9-4 5-15 8-4 1h-14l-10-4-8-6-6-9-1-4h2l4 8 7 6 8 3h11l10-3-10-1v-1l10-1 5-3 2-4-1-7-3-5-9-3-2-2 1-6z" fill="#FBFCFB"/>
<path transform="translate(1113,1199)" d="m0 0h18v1l-17 1 1 4 10 8 2 3-1 12-5 13 11-7 8-6 7 1 10 7 10 6-7-22v-7l15-10v-3l6 1-1 7-9 8-2 4v7l4 11-1 7-4 2-6-1-8-8-4-2-5 1-14 9-8 1-3-3v-7l4-10v-8l-4-4-9-7-1-3z" fill="#FEFFFE"/>
<path transform="translate(735,1401)" d="m0 0 12 2 9 6 6 7 1 6-4 8-4-1v-10l-4-7-8-4-4-1h-8l-9 4-6 7-5 10-2 8v9l3 10 5 5 7 4 10 1 8-3h4l-2 5-5 3-5 1h-9l-11-4-5-4-5-9-1-12 2-13 5-12 9-10 10-5z" fill="#5D5A59"/>
<path transform="translate(949,1200)" d="m0 0 2 1 1 4 11 8v12l-2 10v4l11-7 6-4 6 1 12 8 7 4-3-12-3-10v-6l16-10 1-2-2 1h-11v-1l6-1h9l3 2-1 5-10 9-3 5v7l3 7 1 10-4 1-11-7-10-4-12 6-5 3-6 1-3-3v-6l2-6v-10l-3-5-9-8v-6z" fill="#FEFFFE"/>
<path transform="translate(839,1434)" d="m0 0h12l16 7 2 2-1 4-7 6-4 3-6 24-3 10v7l2 6v6l-1 2-9 1-12-4-10-6 5-5 1 4 16 4h5v-3l-5-2v-7l11-41 3-9h8v-2l-12-4-11-2z" fill="#FDFEFD"/>
<path transform="translate(1510,1336)" d="m0 0 6 1 5 7 1 7-4 4-8-1-4-2h-7l-6 4-4 8v9l5 13 6 7 9 4 14 1v1l-5 1h-9l-8-3-9-8-7-11-4-11v-11l3-6 5-5 4-3 6-2h7l5 5 6 2-3-8z" fill="#FEFFFE"/>
<path transform="translate(992,789)" d="m0 0h48l38 3 32 1 56 7v1h-15l-10-2-21-2-13-2-44-1-9-1h-90l-21 1-41 1-50 5-27 3-10 2h-9v-1l27-4 34-4 29-3 45-2 9-1z" fill="#B7B1A8"/>
<path transform="translate(731,1406)" d="m0 0h8l9 3 5 4 3 6-1 9-2-4-3-7-5-3-10 1-10 5-6 7-3 7-1 12 2 9 4 5 6 3h8l4-2 4 1-5 3-10 1-10-4-5-5-3-4-2-8v-9l4-13 6-9 7-6z" fill="#FEFFFE"/>
<path transform="translate(835,1200)" d="m0 0 5 1 1 1v5l-5 5-6 5-1 2v11l3 8v6l-5 3-5-2-13-10h-5l-9 7-5 4h-7l-2-3v-7l2-2-1 6 9-5 9-7 7 1 11 8 9 5-7-22v-7l15-10z" fill="#FEFFFE"/>
<path transform="translate(1366,1402)" d="m0 0h19l5 5 1 9-2 3-9-1-7-3-8 1-7 5-5 8-1 4v7l4 13 5 7 9 4 6 1v1h-8l-7-3-5-5-6-9-3-7-1-5v-15l4-7 7-6 6-2h12l4 4 2 3 5 1-3-10-1-1h-15l-11 2 2-2z" fill="#FEFFFE"/>
<path transform="translate(1193,1464)" d="m0 0h2l3 32 1 4-9 1-1 1-1 20-4 5-2 1h-10l-6-4-1-1v-16l2 3 4 10v2h6l3-10 11-41z" fill="#FEFFFE"/>
<path transform="translate(580,962)" d="m0 0 5 5 11 14 8 10 2 5-21 8h-4l-1-8z" fill="#595656"/>
<path transform="translate(664,1373)" d="m0 0 5 1 8 4 4 3-1 3h-2l1 4-5-3h-6l-5 6-8 16-5 8-1 3v15l-1 4-3 1-14-7-6-6 1-4 7-6 2 1-7 6v2l13 7 4 1-2-6-4-3 1-4h2l2-6 18-34z" fill="#FDFEFD"/>
<path transform="translate(1434,1372)" d="m0 0 4 1 3 5 1 16 7 15 5 12 5 4 9 5 1 6-10 7-6 2h-6l-2-4-1-13-11-23-8-12-8-7v-4l2-1 5 4 9 15 12 23 2 5v8l-1 4 8-3 8-4h2v-4h-9l-3-4-7-16-8-16-5-11-1-5 4-2z" fill="#FEFFFE"/>
<path transform="translate(1481,950)" d="m0 0 9 3 8 4-3 13h-1l-2-9-4-2-4 6-3 11 1 4 6-3 3-2-2 4-8 7-10 6-5-1-2-4h-2l-1-4 7-8 6-10z" fill="#FEFFFE"/>
<path transform="translate(1077,890)" d="m0 0 3 1 7 24 3 15h-19l-7-1 1-6 10-26z" fill="#5A5757"/>
<path transform="translate(599,1327)" d="m0 0 6 2 8 6 4 5-9 8-7 6-8 15-9 11-3 17-3 2-10-5-8-7 1-4 5 5 9 6 3-1v-4l-5-2 2-5 9-14 11-17 8-14 10 3-3-5-11-7z" fill="#FDFEFD"/>
<path transform="translate(803,1463)" d="m0 0 32 8-1 10-2 3-2-5-1-3-6-2-2-1h-7l-6 4-1 1v7l4 11 1 3-12 1-8-2-10-5-1-4 19 5h3v-5l-5-1v-7l4-17z" fill="#FEFFFE"/>
<path transform="translate(554,1296)" d="m0 0 9 3 4 5 2 3-1 5-5 1-19 1-8 3-4 5-4 10v15l3 10-1 8-5 1-9-7-4-5 1-2 10 8 5 1-5-9v-37l31-8 7 1v2l3-2-2-5-8-6z" fill="#FEFFFE"/>
<path transform="translate(520,1272)" d="m0 0 8 1 6 4v2l3 1 3 6v10l4-1h8l-3 2h-2v2l-11 4-16 4-6-1-3-3 9-12 5-8 5 2 5 1-1-4-6-5-8-4z" fill="#FEFFFE"/>
<path transform="translate(800,1424)" d="m0 0 13 1 8 2 8 6 1 5-11 4-4 5 1 7 3 3 9 3 8-1 4-3-2 9-11-2-22-7 4-17 2-7h6l2-1 1-3-15-2v2l-3 1v19l-4 8-2-1 3-8v-11l-1-9z" fill="#FEFFFE"/>
<path transform="translate(957,405)" d="m0 0 6 2 4 8-1 25 1 31v35l2 8 2 2-6-1-3-5-1-102-9 1 3-3z" fill="#FEFFFE"/>
<path transform="translate(1045,1462)" d="m0 0h4l-1 9-4 10-2 26-3 26-2 3h-6l-6-4-4-6-2-10 2 2 5 11 9 2 1-28 2-36 7-2z" fill="#FEFFFE"/>
<path transform="translate(1141,1471)" d="m0 0 4 4 8 14 8 11 1 2-7 1-1 7 4 12-1 7-3 2h-15l-2-4 16-2 2-1v-4l-6-1-2-9-5-33z" fill="#FEFFFE"/>
<path transform="translate(993,1476)" d="m0 0 5 5 11 17v3l-3-2-7 1-3 6 1 9 5 14v6h-11l-10-4-2-2 1-7h1v6h12l6 1-1-5-6-2v-30z" fill="#FEFFFE"/>
<path transform="translate(1533,1373)" d="m0 0 7 1 4 6v9l-6 8-13 9-10 4h-7l-13-5-10-8-7-11-1-5 3 4 4 6 5 5 8 5 4 2 10 1 9-2 9-6 6-7 2-5 1-8-5-1v11l-2 5-1-3 2-14z" fill="#FEFFFE"/>
<path transform="translate(1208,1450)" d="m0 0 4 1-2 12-2 4v7l3 7v15l2 8 6 10v7l-4 2h-10l-4-2-1-2v-18l2 1v16l10-1 4-1-1-4-6-2-1-2-4-31-3-22 6-3z" fill="#FEFFFE"/>
<path transform="translate(988,579)" d="m0 0h1v158l-3 2-11 1-43 2-17 2-27 2-18 3h-9v-2l23-3 14-2 18-1 13-2 58-2z" fill="#A79F95"/>
<path transform="translate(951,409)" d="m0 0 1 4v135l4 13 8 7 9 3 11 2 3 3-1 2-7-3-11-1-11-8-5-8-3-10v-136z" fill="#A39B91"/>
<path transform="translate(1018,406)" d="m0 0h6l3 2 3 8-1 7-1 1-1 91-3-2-1-104h-6l-4 2 2-4z" fill="#FBFCFB"/>
<path transform="translate(1272,1443)" d="m0 0 4 5 12 18 1 5-5 2-11 2h-5l2-19zm7 23 1 3 1-3z" fill="#FEFFFE"/>
<path transform="translate(894,1498)" d="m0 0h1l-1 7-2 6h-2l-2 5 21 3 26 4 1-12-4 1-3 4-4 1h-12l-1-2h11l6-4 6-3 6 5v12l-4 4-8-1-19-4-16-3-9-3 1-4 5-8z" fill="#FDFDFC"/>
<path transform="translate(1390,1433)" d="m0 0 5 1 5 9 2 7-1 7-4 5-7 5-1-2 4-7-1-7-3-5-9-3-2-2v-4z" fill="#605D5C"/>
<path transform="translate(992,406)" d="m0 0 4 2v107l-3-3z" fill="#FEFFFE"/>
<path transform="translate(704,1456)" d="m0 0h2l3 5v2l12 6 4 1h9l7-2 3-1 2-5h-3v-2l8 2 1 4-3 7-3 3-3 1h-14l-13-4-8-7-4-8z" fill="#FDFDFC"/>
<path transform="translate(1282,1478)" d="m0 0 2 1-6 9-2 9-1 10-4 4-5 2h-6l-2-2v-4l14-4v-4l-5-1v-13l2-2 9-2z" fill="#FEFFFE"/>
<path transform="translate(507,1309)" d="m0 0 5 4 5 15v18l-3 1-1 3-1-2 3-8v-10l-1-7h-7l-5 5-5 8-2-4-2-1 1-4 4-7 8-10z" fill="#FEFFFE"/>
<path transform="translate(642,1354)" d="m0 0 7 1 17 9 1 2-6-2-13-7h-7l-6 5v4l5 1 1-5 2-1 9 4 5 3-2 6-2 9h-1l-1-8-4-3-14-1-1-1 1-9 6-6z" fill="#FCFDFC"/>
<path transform="translate(1183,754)" d="m0 0 9 3 30 6 39 10 11 4-4 1-25-7-13-2-11-2-9-3-12-1-2-1v-2l-12-2z" fill="#E6E4E1"/>
<path transform="translate(1145,1460)" d="m0 0 5 2 5 7 6 14 6 8 6 5h5l3-2-5 10-2 5-4-4-12-22-11-19z" fill="#FEFFFE"/>
<path transform="translate(197,1096)" d="m0 0 5 5 12 9 33 22 20 14 15 11 14 11h-3l-12-9-19-14-15-10-16-11-17-11-10-7-5-5z" fill="#FEFFFE"/>
<path transform="translate(1128,522)" d="m0 0 1 3-6 14-3 12-3 23v11l2 23 3 9-1 4-4-11-3-19v-19l2-10 2-14 6-18z" fill="#BFB9B2"/>
<path transform="translate(1272,1432)" d="m0 0 5 2 9 11 12 18 12 16 2 4 4 2 3 4-5-2-7-7-10-14-13-18-9-12-3-1-3 5h-2l-1 19h-1v-13l2-9z" fill="#F9F9F8"/>
<path transform="translate(995,1461)" d="m0 0 5 3 10 15 7 13 5 6 6 2-1 6v8l-4-5-11-19-12-21-3-4v-2h-2z" fill="#FDFEFD"/>
<path transform="translate(673,1370)" d="m0 0 5 1 14 7 3 4v7l-5 7-5-1-4-5h4l2-5 2-6-16-8z" fill="#FEFFFE"/>
<path transform="translate(929,739)" d="m0 0h17v1h-14v2l-17 2-27 2-18 3h-9v-2l23-3 14-2 18-1z" fill="#C9C5BF"/>
<path transform="translate(1057,791)" d="m0 0 21 1 32 1 56 7v1h-15l-10-2-21-2-13-2-44-1v-2h-6z" fill="#C0BBB3"/>
<path transform="translate(827,750)" d="m0 0 1 3-2 3h-3v2l-16 3-13 2-27 7-10 3-4-1 22-7 29-7 14-2 8-5z" fill="#FEFFFE"/>
<path transform="translate(980,1522)" d="m0 0h1v6h12l6 1v-3h2l1 9h-11l-10-4-2-2z" fill="#FBFCFB"/>
<path transform="translate(951,409)" d="m0 0 1 4-1 60-2 1v-62z" fill="#CCC8C2"/>
<path transform="translate(595,1326)" d="m0 0 4 1-3 3 1 4-4 13-13 22-9 10-4 3-3-1 9-7 4-5 10-17 5-10 2-14z" fill="#FEFFFE"/>
<path transform="translate(803,1175)" d="m0 0h7l2 2 5 16 3 6-6-2-3-4-6-16z" fill="#FEFFFE"/>
<path transform="translate(950,790)" d="m0 0h29l-1 2-35 2-20-1v-1z" fill="#C6C2BB"/>
<path transform="translate(1145,1175)" d="m0 0 6 2 8 20 1 2-6-2-3-4-6-16z" fill="#FEFFFE"/>
<path transform="translate(1200,1501)" d="m0 0 2 1v16l10-1 4-1 1-2h2v7l-4 2h-10l-4-2-1-2z" fill="#FBFCFA"/>
<path transform="translate(1384,1305)" d="m0 0 2 1-14 8-21 10-3-1v-2l28-13z" fill="#B9B3AB"/>
<path transform="translate(982,1174)" d="m0 0 5 2 4 8 3 11 1 3-4-2-5-8-4-11-2-2z" fill="#FEFFFE"/>
<path transform="translate(770,1201)" d="m0 0 7 6 8 6 2 4-1 12-2 5-1-3 1-4v-8l-5-5-9-7-1-4z" fill="#FEFFFE"/>
<path transform="translate(1319,1489)" d="m0 0 3 3-1 4-5 3-9 1-4-4 13-4h3z" fill="#FCFDFC"/>
<path transform="translate(521,1445)" d="m0 0 8 4 10 7-2 1-13-8 8 6 10 6-2 1-12-5-7-6-1-4z" fill="#FEFFFE"/>
<path transform="translate(1533,1375)" d="m0 0 5 1v8l-4 8-7 6 2-4 3-8z" fill="#635F5D"/>
<path transform="translate(832,1436)" d="m0 0h6l2 2 4 1-1 8-2 8h-1l-2-9z" fill="#FEFFFE"/>
<path transform="translate(1128,522)" d="m0 0 1 3-6 14-3 12-2 17-2 4h-1l1-10 2-14 6-18z" fill="#C3BEB7"/>
<path transform="translate(954,560)" d="m0 0 7 6 8 4 15 3 3 3-1 2-7-3-11-1-11-8-3-4z" fill="#FEFFFE"/>
<path transform="translate(800,1424)" d="m0 0h6l1 2h-2v2l-3 1v19l-4 8-2-1 3-8v-11l-1-9z" fill="#C2BEB8"/>
<path transform="translate(1378,1437)" d="m0 0 2 2h7l4 4 4 8 1 6-3 3-1-9-3-5-9-3-2-2z" fill="#FEFFFE"/>
<path transform="translate(562,1469)" d="m0 0 6 2 35 17 2 2-5-1-16-8-21-9z" fill="#FEFFFE"/>
<path transform="translate(749,773)" d="m0 0 4 1-3 1 2 2-28 6-4-1 6-2 21-6z" fill="#B8B3AC"/>
<path transform="translate(1266,1447)" d="m0 0h1l2 17v7l-1-3-4 1-1 5-1-2 2-12 1-1z" fill="#B3ACA4"/>
<path transform="translate(1293,1477)" d="m0 0 5 3 3 5v6l-4-5-8-6-4-2z" fill="#FEFFFE"/>
<path transform="translate(827,750)" d="m0 0 1 3-2 3h-3v2l-16 3h-5l3-2h7v-2l8-2 6-4z" fill="#B6B0A7"/>
<path transform="translate(1026,1462)" d="m0 0 2 1 3 9 1 1v25l-3 2 1-4v-19l-5-14z" fill="#FEFFFE"/>
<path transform="translate(547,1297)" d="m0 0 4 2 4 1v2l-17 2h-5l3-2 11-3z" fill="#9B9287"/>
<path transform="translate(895,1448)" d="m0 0 3 4 2 10v12h-1l-2-13-3-6z" fill="#FEFFFE"/>
<path transform="translate(1507,1456)" d="m0 0 4 1-18 10-3-1 4-3z" fill="#C3BEB7"/>
<path transform="translate(1127,1459)" d="m0 0 2 1 3 4 4 13v5l-2-3-7-16z" fill="#FEFFFE"/>
<path transform="translate(1115,591)" d="m0 0h1v5h2l1 12 3 9-1 4-4-11-2-12z" fill="#CCC8C2"/>
<path transform="translate(1210,762)" d="m0 0 18 4 10 3v1l-8-1-11-2-9-3z" fill="#9B9287"/>
<path transform="translate(934,1508)" d="m0 0 2 2-5 3-2 3-4 1h-12l-1-2h11l6-4z" fill="#F6F7F5"/>
<path transform="translate(479,1326)" d="m0 0 1 3 4 2 11 7-2 2-11-7-3-3z" fill="#FEFFFE"/>
<path transform="translate(1125,627)" d="m0 0 5 5 8 6 8 5-2 1-13-8-6-7z" fill="#FEFFFE"/>
<path transform="translate(839,1434)" d="m0 0h12l10 4 1 2-18-4-5-1z" fill="#FEFFFE"/>
<path transform="translate(1272,778)" d="m0 0 6 1 8 3v2l-13-2 1-2z" fill="#C5C0BA"/>
<path transform="translate(980,1460)" d="m0 0 4 4 1 2v7l-3-4-3-5z" fill="#FEFFFE"/>
<path transform="translate(516,1328)" d="m0 0h1v18l-3 1-1 3-1-2 3-8z" fill="#C2BCB5"/>
<path transform="translate(831,1486)" d="m0 0 1 2-3 8-6 1 6-8z" fill="#F7F7F6"/>
<path transform="translate(1529,1391)" d="m0 0 1 3-3 5-5 3h-2v-2l-2-1h5v-2l5-4z" fill="#9F9A95"/>
<path transform="translate(1489,1340)" d="m0 0 2 1-12 12v-3l6-7z" fill="#A6A39F"/>
<path transform="translate(1355,1318)" d="m0 0 3 1-3 3-4 2-3-1v-2z" fill="#B6B0A7"/>
<path transform="translate(757,772)" d="m0 0 3 1 2 2-5 1h-8l1-2z" fill="#726D68"/>
<path transform="translate(864,897)" d="m0 0h1l1 7v9h-1v-8h-2l-1 2 1-9z" fill="#9B9287"/>
<path transform="translate(1267,1471)" d="m0 0 1 4 10-2h6v1l-13 3h-3l-1-1z" fill="#9B9287"/>
<path transform="translate(1183,754)" d="m0 0 9 3 6 1v1h-10l-5-2z" fill="#CCC8C2"/>
</svg>
